HIERARCHY
ROOT Hips
{
	OFFSET 0.000000 0.000000 0.000000 
	CHANNELS 6 Xposition Yposition Zposition Yrotation Zrotation Xrotation 
	JOINT Lumbar
	{
		OFFSET 0.000000 0.000000 0.000000 
		CHANNELS 3 Zrotation Xrotation Yrotation
		JOINT Neck
		{
			OFFSET 0.000000 0.445665 0.000000 
			CHANNELS 3 Zrotation Xrotation Yrotation
			End Site
			{
				OFFSET 0.000000 0.227535 0.000000 
			}
		}
		JOINT RightShoulder
		{
			OFFSET 0.019635 0.377685 0.194865 
			CHANNELS 3 Zrotation Xrotation Yrotation
			JOINT RightElbow
			{
				OFFSET 0.000000 -0.243375 0.000000 
				CHANNELS 2 Zrotation Yrotation
				JOINT RightWrist
				{
					OFFSET 0.000000 -0.264825 0.000000 
					CHANNELS 2 Zrotation Xrotation
					End Site
					{
						OFFSET 0.006600 -0.176220 0.000990 
					}
				}
			}
		}
		JOINT LeftShoulder
		{
			OFFSET 0.019635 0.377685 -0.194865 
			CHANNELS 3 Zrotation Xrotation Yrotation
			JOINT LeftElbow
			{
				OFFSET 0.000000 -0.243375 0.000000 
				CHANNELS 2 Zrotation Yrotation
				JOINT LeftWrist
				{
					OFFSET 0.000000 -0.264825 0.000000 
					CHANNELS 2 Zrotation Xrotation
					End Site
					{
						OFFSET 0.006600 -0.176220 -0.000990 
					}
				}
			}
		}
	}
	JOINT RightHip
	{
		OFFSET 0.052140 -0.069960 0.075570 
		CHANNELS 3 Zrotation Xrotation Yrotation
		JOINT RightKnee
		{
			OFFSET 0.000000 -0.402270 0.000000 
			CHANNELS 1 Zrotation
			JOINT RightAnkle
			{
				OFFSET 0.000000 -0.404085 0.000000 
				CHANNELS 3 Zrotation Xrotation Yrotation
				End Site
				{
					OFFSET 0.204105 -0.089430 0.008415 
				}
			}
		}
	}
	JOINT LeftHip
	{
		OFFSET 0.052140 -0.069960 -0.075570 
		CHANNELS 3 Zrotation Xrotation Yrotation
		JOINT LeftKnee
		{
			OFFSET 0.000000 -0.402270 0.000000 
			CHANNELS 1 Zrotation
			JOINT LeftAnkle
			{
				OFFSET 0.000000 -0.404085 0.000000 
				CHANNELS 3 Zrotation Xrotation Yrotation
				End Site
				{
					OFFSET 0.204105 -0.089430 -0.008415 
				}
			}
		}
	}
}
MOTION
Frames: 32
Frame Time: 0.02
0 0.95578 -0 200.95182 0 -3.18084 8.48787 3.79575 -4.34459 -7.86553 -2.6716 -1.88712 18.07494 -4.44817 20.05856 10.21344 85.78608 -0.73732 -3.03133 21.30608 7.4583 -11.08542 17.89043 -65.80815 11.14681 8.0194 -5.4523 8.21936 16.2276 -3.53198 0.33571 -5.26438 -10.79154 -4.16639 -0.54577 -8.53336 -5.24086 6.01722 3.74251 5.51453
-0.00056 0.95569 0.00044 201.01503 0 -3.1925 8.38879 3.87807 -4.20608 -7.58667 -2.4932 -1.96035 16.31372 -4.93891 17.54329 9.56923 85.42374 -0.68479 -2.64681 19.10381 7.85261 -11.80509 16.16411 -68.14209 7.7979 6.81651 -5.50728 8.18439 14.65328 -3.4943 0.54487 -4.69744 -9.31273 -4.20297 -0.54231 -8.51565 -5.23933 6.05766 3.78308 5.46176
-0.00111 0.9556 0.00087 201.07791 0 -3.20404 8.28941 3.95987 -4.06823 -7.30805 -2.31485 -2.03335 14.5558 -5.42933 15.01136 8.92889 85.0579 -0.6344 -2.26265 16.90405 8.2442 -12.44472 14.44794 -70.45298 4.47372 5.62276 -5.56198 8.14971 13.09276 -3.45691 0.75248 -4.13528 -7.84723 -4.23941 -0.53893 -8.49812 -5.23774 6.09793 3.8233 5.40934
-0.00166 0.95551 0.0013 201.14033 0 -3.21527 8.18817 4.04032 -3.93231 -7.02771 -2.13438 -2.1068 12.79782 -5.92301 12.3988 8.29736 84.67639 -0.59134 -1.87442 14.698 8.62569 -12.75315 12.75431 -72.68088 1.21877 4.45597 -5.61603 8.11554 11.56393 -3.42011 0.95639 -3.58576 -6.41258 -4.2755 -0.53587 -8.48151 -5.23586 6.13786 3.86237 5.35783
-0.00225 0.95542 0.00175 201.20546 0 -3.22819 8.09711 4.12783 -3.78693 -6.7565 -1.96442 -2.17865 11.04482 -6.39911 10.22588 7.61869 84.38007 -0.50857 -1.50564 12.5314 9.05696 -14.79386 10.9398 -75.33219 -2.39935 3.14897 -5.67347 8.07827 9.85751 -3.37993 1.18045 -2.96814 -4.805 -4.31327 -0.53117 -8.46046 -5.2355 6.17953 3.90734 5.30152
-0.00275 0.95532 0.00216 201.26459 0 -3.23752 7.98438 4.20041 -3.6612 -6.46622 -1.77288 -2.25329 9.27991 -6.9121 7.11683 7.04072 83.90243 -0.51048 -1.09751 10.27939 9.38504 -13.18392 9.38375 -77.09635 -5.24816 2.13806 -5.7237 8.04786 8.53498 -3.34712 1.36127 -2.49596 -3.5712 -4.34756 -0.52991 -8.44857 -5.2319 6.21748 3.93992 5.25542
-0.003 0.9552 0.00248 201.3101 0 -3.23667 7.80839 4.23146 -3.59234 -6.11395 -1.51021 -2.34249 7.45867 -7.54326 1.31393 6.73232 82.90501 -0.74948 -0.55304 7.7558 9.40528 -0.95171 8.51612 -76.27269 -5.95222 1.96186 -5.75438 8.03409 8.21736 -3.33298 1.42675 -2.42028 -3.31723 -4.37171 -0.53881 -8.4649 -5.21912 6.2458 3.93683 5.23733
-0.00316 0.95506 0.00276 201.34916 0 -3.23224 7.61101 4.24751 -3.54271 -5.74402 -1.22766 -2.4334 5.62847 -8.20908 -5.41775 6.52682 81.7277 -1.07342 0.02679 5.15074 9.32547 14.87463 7.91309 -74.57554 -5.88365 2.08134 -5.77775 8.0276 8.29556 -3.32651 1.44797 -2.49223 -3.44851 -4.39243 -0.55107 -8.49012 -5.20312 6.27026 3.92147 5.2296
-0.00337 0.95493 0.00305 201.38914 0 -3.22966 7.42534 4.27067 -3.48257 -5.38743 -0.96127 -2.51913 3.8143 -8.84956 -11.66488 6.27943 80.64275 -1.35697 0.57303 2.60171 9.30645 28.72781 7.20444 -73.36956 -6.18314 2.05413 -5.80424 8.01936 8.23025 -3.3177 1.4868 -2.50003 -3.43921 -4.41513 -0.56134 -8.50918 -5.1887 6.29614 3.91265 5.21719
-0.00354 0.95479 0.00336 201.43714 0 -3.22622 7.23103 4.29262 -3.43011 -5.00734 -0.66451 -2.62327 1.94672 -9.53153 -18.18637 6.01156 79.5099 -1.64889 1.19275 -0.03127 9.22314 44.03664 6.43428 -71.77545 -6.41288 2.07859 -5.8315 8.00481 8.01792 -3.30433 1.53594 -2.49577 -3.29033 -4.43621 -0.5735 -8.53653 -5.17368 6.3235 3.89981 5.2045
-0.00377 0.95467 0.00362 201.46749 0 -3.22363 7.04999 4.31346 -3.36595 -4.67341 -0.42668 -2.68967 0.19232 -10.13393 -24.34261 5.81076 78.43816 -1.94246 1.6683 -2.5036 9.24947 57.13857 5.85498 -70.77038 -6.60199 2.06615 -5.8555 8.00482 8.19781 -3.30195 1.55338 -2.55125 -3.51618 -4.45966 -0.58261 -8.54954 -5.15927 6.34675 3.89236 5.19508
-0.00415 0.95466 0.00376 201.44587 0 -3.22491 6.90789 4.33558 -3.2673 -4.45925 -0.35286 -2.64995 -1.28199 -10.52038 -29.38765 5.76994 77.54323 -2.22931 1.73348 -4.55606 9.607 63.51937 5.73836 -71.70876 -6.88913 1.87511 -5.87158 8.04594 9.43253 -3.33091 1.49167 -2.73902 -4.7468 -4.492 -0.58178 -8.51396 -5.14634 6.36052 3.90346 5.19011
-0.00459 0.95469 0.00385 201.40766 0 -3.22703 6.78049 4.35699 -3.15586 -4.29458 -0.33962 -2.5725 -2.63464 -10.82331 -34.00856 5.79309 76.72232 -2.5131 1.65313 -6.43453 10.07718 67.5097 5.80467 -73.25139 -7.15792 1.63769 -5.88472 8.10099 11.03564 -3.37017 1.40006 -2.98103 -6.32942 -4.52651 -0.57789 -8.46492 -5.13436 6.37012 3.92026 5.18836
-0.005 0.9547 0.00396 201.3801 0 -3.22831 6.64825 4.37827 -3.04843 -4.11489 -0.30106 -2.51332 -4.02161 -11.15645 -38.74384 5.78693 75.89153 -2.7921 1.64171 -8.36595 10.49367 72.42769 5.78684 -74.44893 -7.42153 1.42417 -5.89973 8.14789 12.42486 -3.40278 1.32372 -3.19611 -7.70841 -4.55913 -0.57586 -8.42655 -5.12252 6.381 3.93405 5.18658
-0.00543 0.95471 0.00407 201.33891 0 -3.23137 6.50729 4.40089 -2.94877 -3.90227 -0.25275 -2.44942 -5.50161 -11.52344 -43.84809 5.78527 74.95565 -3.10026 1.61943 -10.4164 10.91883 78.13561 5.78213 -75.91115 -7.71613 1.20841 -5.9124 8.20262 14.02345 -3.4438 1.23863 -3.42651 -9.28425 -4.59566 -0.57199 -8.36929 -5.10794 6.39431 3.94926 5.17945
-0.00582 0.95473 0.00417 201.32263 0 -3.23102 6.3885 4.42081 -2.8303 -3.77122 -0.23908 -2.3864 -6.75357 -11.79974 -48.06387 5.78822 74.25669 -3.34573 1.58513 -12.16912 11.35198 81.59057 5.79052 -76.98003 -7.95081 0.98325 -5.92913 8.24437 15.26911 -3.46985 1.16537 -3.63528 -10.52983 -4.62431 -0.57116 -8.34805 -5.09959 6.40165 3.9629 5.18366
-0.00608 0.95476 0.00425 201.3762 0 -3.22068 6.32548 4.4331 -2.65734 -3.84504 -0.30918 -2.33483 -7.44907 -11.84531 -49.97981 5.78648 74.21228 -3.41908 1.54969 -13.20411 11.79698 79.32814 5.78554 -76.79238 -8.0373 0.73521 -5.95961 8.24604 15.43869 -3.45034 1.1313 -3.77587 -10.76323 -4.63318 -0.57971 -8.42985 -5.10615 6.39303 3.97193 5.22241
-0.0063 0.95479 0.00433 201.45607 0 -3.20695 6.28474 4.44287 -2.46699 -4.001 -0.41167 -2.28558 -7.9103 -11.80279 -50.99827 5.78699 74.40203 -3.42875 1.50757 -13.93285 12.24322 74.87655 5.78699 -76.19663 -8.06552 0.47935 -5.99395 8.23424 15.23914 -3.41569 1.11062 -3.89099 -10.65147 -4.63356 -0.59138 -8.54843 -5.11933 6.3786 3.97903 5.27176
-0.00652 0.95482 0.00441 201.5258 0 -3.19502 6.23507 4.45407 -2.28809 -4.12466 -0.49742 -2.23524 -8.45123 -11.80049 -52.39536 5.78707 74.47237 -3.4673 1.47075 -14.76169 12.67823 71.46392 5.78726 -75.80693 -8.11608 0.23099 -6.0254 8.2292 15.21574 -3.38904 1.08443 -4.01409 -10.70668 -4.63618 -0.60144 -8.6497 -5.13087 6.36726 3.98634 5.31346
-0.00681 0.95485 0.00449 201.58705 0 -3.18205 6.18073 4.46395 -2.09328 -4.22823 -0.59355 -2.18324 -9.10421 -11.79316 -53.91809 5.78687 74.59671 -3.50702 1.41966 -15.75223 13.16287 67.78959 5.78666 -75.35089 -8.18342 -0.03543 -6.06169 8.22218 15.17556 -3.35798 1.05437 -4.1551 -10.73716 -4.64574 -0.61215 -8.75232 -5.13673 6.35411 3.99665 5.36684
-0.00695 0.95488 0.00457 201.67276 0 -3.1704 6.14135 4.4761 -1.92825 -4.39323 -0.67526 -2.13635 -9.46565 -11.77816 -54.9508 5.78705 74.66739 -3.528 1.39815 -16.33207 13.54206 64.16429 5.78705 -74.92831 -8.20175 -0.26556 -6.08868 8.21563 15.07085 -3.33244 1.0364 -4.2511 -10.72574 -4.63874 -0.62236 -8.86193 -5.15587 6.34312 4.00016 5.39885
-0.00674 0.9549 0.00464 201.81656 0 -3.16351 6.13671 4.49443 -1.84424 -4.70184 -0.70662 -2.09793 -9.11372 -11.74945 -55.02839 5.78684 74.49699 -3.52329 1.46352 -15.88179 13.63717 61.27169 5.78689 -74.69748 -8.10476 -0.39299 -6.09046 8.21607 14.93795 -3.32519 1.0447 -4.23698 -10.74108 -4.58867 -0.62974 -8.97371 -5.21117 6.34204 3.98569 5.36478
-0.00639 0.95492 0.00471 201.98453 0 -3.158 6.14656 4.51527 -1.7917 -5.07058 -0.72254 -2.06561 -8.47017 -11.71927 -54.61426 5.78706 74.27077 -3.50021 1.55829 -15.02383 13.62427 58.50261 5.78696 -74.51211 -7.95946 -0.48324 -6.08253 8.21697 14.7415 -3.32408 1.06545 -4.17693 -10.71504 -4.52216 -0.63664 -9.09246 -5.27936 6.34293 3.96436 5.30951
-0.00609 0.95494 0.00478 202.14376 0 -3.15165 6.15038 4.53546 -1.7286 -5.4151 -0.74691 -2.03411 -7.93878 -11.69918 -54.30804 5.78697 74.09318 -3.47838 1.63885 -14.33484 13.65527 55.65009 5.78697 -74.3026 -7.83281 -0.59104 -6.07814 8.21598 14.53099 -3.32056 1.08335 -4.13207 -10.66618 -4.46273 -0.64422 -9.21389 -5.34099 6.34126 3.94595 5.26701
-0.00584 0.95495 0.00485 202.29524 0 -3.14607 6.15242 4.55355 -1.64975 -5.74826 -0.76635 -1.98786 -7.48706 -11.63545 -54.45091 5.78632 73.82577 -3.48332 1.7254 -13.70544 13.70787 52.84109 5.78676 -74.09167 -7.71846 -0.69756 -6.07752 8.22149 14.48223 -3.31497 1.09038 -4.10926 -10.775 -4.40445 -0.64995 -9.31347 -5.40597 6.34631 3.92829 5.21217
-0.00545 0.95498 0.00493 202.46723 0 -3.13929 6.1616 4.5766 -1.61058 -6.1197 -0.79203 -1.9733 -6.80079 -11.66434 -53.56237 5.78837 73.72888 -3.43017 1.80313 -12.8572 13.69031 49.99196 5.78741 -73.90257 -7.56728 -0.79636 -6.06674 8.21392 14.09492 -3.31526 1.12213 -4.0313 -10.55782 -4.34021 -0.65938 -9.45779 -5.46674 6.33803 3.90748 5.17718
-0.00475 0.95502 0.00506 202.69878 0 -3.12868 6.18423 4.61309 -1.68076 -6.56957 -0.83776 -2.04896 -5.56007 -11.94167 -49.87445 5.785 74.11706 -3.21131 1.87932 -11.52248 13.5009 47.08517 5.78637 -73.73908 -7.33137 -0.89545 -6.02972 8.16857 12.71597 -3.33124 1.22508 -3.801 -9.38621 -4.26167 -0.67927 -9.74092 -5.5147 6.2914 3.87971 5.20831
-0.00392 0.95508 0.00521 202.94845 0 -3.11687 6.21388 4.65439 -1.78863 -7.0577 -0.89027 -2.15556 -4.0906 -12.31391 -45.18485 5.78668 74.67712 -2.93694 1.94043 -9.98002 13.24546 44.13237 5.78692 -73.60205 -7.05972 -0.98589 -5.98286 8.11045 11.0147 -3.35287 1.35122 -3.51922 -7.90265 -4.17803 -0.70287 -10.06577 -5.55767 6.23154 3.84906 5.25913
-0.00315 0.95513 0.00534 203.18376 0 -3.10574 6.242 4.69336 -1.87422 -7.53627 -0.94018 -2.24524 -2.7125 -12.64846 -41.00356 5.79448 75.15736 -2.69452 1.9883 -8.52208 13.02318 41.15357 5.7893 -73.47081 -6.80095 -1.07177 -5.94087 8.05918 9.50912 -3.37135 1.46281 -3.26828 -6.60455 -4.09807 -0.7247 -10.35985 -5.60147 6.17848 3.81962 5.29668
-0.00235 0.95518 0.00549 203.44536 0 -3.09408 6.26378 4.73323 -1.98201 -7.98437 -0.98773 -2.34712 -1.37661 -12.96084 -36.57457 5.76694 75.64448 -2.42234 2.12046 -7.09048 12.78374 38.36367 5.78081 -73.26712 -6.55336 -1.19133 -5.89697 8.00324 7.78969 -3.39234 1.59203 -2.98346 -5.11623 -4.01204 -0.74688 -10.70289 -5.65142 6.12212 3.7901 5.35109
-0.00158 0.95523 0.00562 203.65673 0 -3.08323 6.30008 4.77209 -2.05287 -8.5037 -1.04179 -2.43095 0.09692 -13.34082 -32.43747 5.814 76.15696 -2.20008 2.07506 -5.56129 12.56587 35.18315 5.79543 -73.21829 -6.27626 -1.24029 -5.85472 7.9543 6.44458 -3.40958 1.68956 -2.75861 -3.95573 -3.93733 -0.76919 -10.95523 -5.6877 6.06953 3.76047 5.37615
-0.0009 0.95528 0.0057 203.71985 0 -3.07483 6.37608 4.80881 -2.00568 -9.21425 -1.11396 -2.45632 1.89861 -13.8937 -29.29184 6.06748 76.71291 -2.122 1.52632 -3.80592 12.42372 30.80885 5.87258 -73.6065 -5.91281 -1.08646 -5.82046 7.92514 6.17049 -3.41331 1.69666 -2.70278 -3.73031 -3.89819 -0.79123 -10.93398 -5.68303 6.02998 3.72876 5.30839
